# xmcd
#
# Track frame offsets: 
#        150
#        16262
#        35297
#        57452
#        79965
#        96686
#        113208
#        118320
#        145883
#        167310
#        189263
#        193581
#        220613
#        222338
#
# Disc length: 3214 seconds
#
# Revision: 0
# Processed by: cddbd v1.5.2PL0 Copyright (c) Steve Scherf et al.
# Submitted via: ExactAudioCopy v0.95b4
#
DISCID=c80c8c0e
DTITLE=Mighty Short Bus - Rogue Nation
DYEAR=2006
DGENRE=Country
TTITLE0=Fire
TTITLE1=Knockin
TTITLE2=Run
TTITLE3=Evil
TTITLE4=Higher
TTITLE5=T.R.B.S.
TTITLE6=Shotmusic
TTITLE7=Weather
TTITLE8=IDon'tMind
TTITLE9=Alright
TTITLE10=
TTITLE11=Wrong
TTITLE12=Bonus Track 1
TTITLE13=Bonus Track 2
EXTD=
EXTT0=
EXTT1=
EXTT2=
EXTT3=
EXTT4=
EXTT5=
EXTT6=
EXTT7=
EXTT8=
EXTT9=
EXTT10=
EXTT11=
EXTT12=
EXTT13=
PLAYORDER=
